<mxfile host="app.diagrams.net" modified="2023-03-28T13:00:02.069Z" agent="Mozilla/5.0 (X11; Linux x86_64) AppleWebKit/537.36 (KHTML, like Gecko) Chrome/111.0.0.0 Safari/537.36" etag="OsI2xcFFQXAcu7jBqerq" version="21.1.1" type="github">
  <diagram name="Page-1" id="VJur4oefotUIWVRc1eGo">
    <mxGraphModel dx="23940" dy="25490" grid="1" gridSize="10" guides="1" tooltips="1" connect="1" arrows="1" fold="1" page="0" pageScale="1" pageWidth="850" pageHeight="1100" math="0" shadow="0">
      <root>
        <mxCell id="0" />
        <mxCell id="1" parent="0" />
        <mxCell id="3UZXfQVDiNcqJCPsMIMa-4" value="" style="rounded=0;whiteSpace=wrap;html=1;hachureGap=4;fontFamily=Architects Daughter;fontSource=https%3A%2F%2Ffonts.googleapis.com%2Fcss%3Ffamily%3DArchitects%2BDaughter;fontSize=20;labelBackgroundColor=none;strokeWidth=25;" parent="1" vertex="1">
          <mxGeometry x="-1040" y="-3100" width="8400" height="6420" as="geometry" />
        </mxCell>
        <mxCell id="rGXDuShkipq5UH_Z0f58-3" style="edgeStyle=orthogonalEdgeStyle;rounded=0;orthogonalLoop=1;jettySize=auto;html=1;exitX=1;exitY=1;exitDx=0;exitDy=0;" edge="1" parent="1" source="3UZXfQVDiNcqJCPsMIMa-5">
          <mxGeometry relative="1" as="geometry">
            <mxPoint x="7330" y="-3111.142857142857" as="targetPoint" />
          </mxGeometry>
        </mxCell>
        <mxCell id="3UZXfQVDiNcqJCPsMIMa-5" value="" style="rounded=0;whiteSpace=wrap;html=1;hachureGap=4;fontFamily=Architects Daughter;fontSource=https%3A%2F%2Ffonts.googleapis.com%2Fcss%3Ffamily%3DArchitects%2BDaughter;fontSize=20;labelBackgroundColor=none;strokeWidth=25;" parent="1" vertex="1">
          <mxGeometry x="-1040" y="-8860" width="8400" height="5750" as="geometry" />
        </mxCell>
        <mxCell id="rGXDuShkipq5UH_Z0f58-8" style="edgeStyle=orthogonalEdgeStyle;rounded=0;orthogonalLoop=1;jettySize=auto;html=1;exitX=0;exitY=0.5;exitDx=0;exitDy=0;entryX=0;entryY=0.5;entryDx=0;entryDy=0;" edge="1" parent="1" source="3UZXfQVDiNcqJCPsMIMa-7" target="3UZXfQVDiNcqJCPsMIMa-4">
          <mxGeometry relative="1" as="geometry" />
        </mxCell>
        <mxCell id="3UZXfQVDiNcqJCPsMIMa-7" value="" style="rounded=0;whiteSpace=wrap;html=1;hachureGap=4;fontFamily=Architects Daughter;fontSource=https%3A%2F%2Ffonts.googleapis.com%2Fcss%3Ffamily%3DArchitects%2BDaughter;fontSize=20;strokeWidth=25;labelBackgroundColor=none;" parent="1" vertex="1">
          <mxGeometry x="-9520" y="-3100" width="8470" height="6420" as="geometry" />
        </mxCell>
        <mxCell id="rGXDuShkipq5UH_Z0f58-2" value="Офисная зона" style="text;html=1;strokeColor=none;fillColor=none;align=center;verticalAlign=middle;whiteSpace=wrap;rounded=0;fontSize=999;" vertex="1" parent="1">
          <mxGeometry x="-9520" y="-5810" width="8480" height="2690" as="geometry" />
        </mxCell>
        <mxCell id="rGXDuShkipq5UH_Z0f58-5" value="Банковское хранилище" style="text;html=1;strokeColor=none;fillColor=none;align=center;verticalAlign=middle;whiteSpace=wrap;rounded=0;fontSize=999;" vertex="1" parent="1">
          <mxGeometry x="-1040" y="-11600" width="8400" height="2710" as="geometry" />
        </mxCell>
        <mxCell id="rGXDuShkipq5UH_Z0f58-6" value="Клиентская зона" style="text;html=1;strokeColor=none;fillColor=none;align=center;verticalAlign=middle;whiteSpace=wrap;rounded=0;fontSize=999;rotation=90;" vertex="1" parent="1">
          <mxGeometry x="5535" y="-1245" width="6430" height="2710" as="geometry" />
        </mxCell>
        <mxCell id="rGXDuShkipq5UH_Z0f58-9" value="" style="endArrow=none;html=1;rounded=0;" edge="1" parent="1" source="3UZXfQVDiNcqJCPsMIMa-7" target="3UZXfQVDiNcqJCPsMIMa-7">
          <mxGeometry width="50" height="50" relative="1" as="geometry">
            <mxPoint x="-6790" y="-120" as="sourcePoint" />
            <mxPoint x="-6740" y="-170" as="targetPoint" />
          </mxGeometry>
        </mxCell>
        <mxCell id="rGXDuShkipq5UH_Z0f58-10" value="" style="endArrow=none;html=1;rounded=0;strokeWidth=20;" edge="1" parent="1" source="3UZXfQVDiNcqJCPsMIMa-7" target="3UZXfQVDiNcqJCPsMIMa-7">
          <mxGeometry width="50" height="50" relative="1" as="geometry">
            <mxPoint x="-6790" y="-120" as="sourcePoint" />
            <mxPoint x="-6740" y="-170" as="targetPoint" />
          </mxGeometry>
        </mxCell>
        <mxCell id="rGXDuShkipq5UH_Z0f58-13" value="" style="endArrow=none;html=1;rounded=0;strokeWidth=20;exitX=0;exitY=0.5;exitDx=0;exitDy=0;" edge="1" parent="1" source="3UZXfQVDiNcqJCPsMIMa-7">
          <mxGeometry width="50" height="50" relative="1" as="geometry">
            <mxPoint x="-1230" y="-1270" as="sourcePoint" />
            <mxPoint x="-1030" y="110" as="targetPoint" />
          </mxGeometry>
        </mxCell>
        <mxCell id="rGXDuShkipq5UH_Z0f58-14" value="Схема безопасности отделения банка второго уровня" style="text;html=1;strokeColor=none;fillColor=none;align=center;verticalAlign=middle;whiteSpace=wrap;rounded=0;fontSize=999;" vertex="1" parent="1">
          <mxGeometry x="-4950" y="-17380" width="16620" height="2690" as="geometry" />
        </mxCell>
        <mxCell id="rGXDuShkipq5UH_Z0f58-15" value="" style="endArrow=none;html=1;rounded=1;strokeWidth=20;entryX=0.618;entryY=0.998;entryDx=0;entryDy=0;entryPerimeter=0;strokeColor=default;" edge="1" parent="1" target="3UZXfQVDiNcqJCPsMIMa-4">
          <mxGeometry width="50" height="50" relative="1" as="geometry">
            <mxPoint x="4151" y="4610" as="sourcePoint" />
            <mxPoint x="4200" y="3360" as="targetPoint" />
          </mxGeometry>
        </mxCell>
        <mxCell id="rGXDuShkipq5UH_Z0f58-18" value="" style="endArrow=none;html=1;rounded=0;strokeWidth=20;entryX=0.618;entryY=0.998;entryDx=0;entryDy=0;entryPerimeter=0;" edge="1" parent="1">
          <mxGeometry width="50" height="50" relative="1" as="geometry">
            <mxPoint x="2330" y="4600" as="sourcePoint" />
            <mxPoint x="2331" y="3310" as="targetPoint" />
          </mxGeometry>
        </mxCell>
        <mxCell id="rGXDuShkipq5UH_Z0f58-21" value="" style="endArrow=none;html=1;strokeWidth=20;exitX=0.511;exitY=1.001;exitDx=0;exitDy=0;exitPerimeter=0;curved=1;" edge="1" parent="1" source="3UZXfQVDiNcqJCPsMIMa-4">
          <mxGeometry width="50" height="50" relative="1" as="geometry">
            <mxPoint x="3080" y="4813" as="sourcePoint" />
            <mxPoint x="2330" y="4590" as="targetPoint" />
            <Array as="points">
              <mxPoint x="3000" y="4140" />
            </Array>
          </mxGeometry>
        </mxCell>
        <mxCell id="rGXDuShkipq5UH_Z0f58-27" value="" style="endArrow=none;html=1;strokeWidth=20;exitX=0.514;exitY=1.001;exitDx=0;exitDy=0;exitPerimeter=0;curved=1;" edge="1" parent="1" source="3UZXfQVDiNcqJCPsMIMa-4">
          <mxGeometry width="50" height="50" relative="1" as="geometry">
            <mxPoint x="3550" y="4810" as="sourcePoint" />
            <mxPoint x="4150" y="4600" as="targetPoint" />
            <Array as="points">
              <mxPoint x="3420" y="4210" />
            </Array>
          </mxGeometry>
        </mxCell>
        <mxCell id="rGXDuShkipq5UH_Z0f58-32" value="" style="shape=mxgraph.signs.tech.video_camera;html=1;pointerEvents=1;fillColor=#000000;strokeColor=none;verticalLabelPosition=bottom;verticalAlign=top;align=center;" vertex="1" parent="1">
          <mxGeometry x="4350" y="3320" width="539" height="220" as="geometry" />
        </mxCell>
        <mxCell id="rGXDuShkipq5UH_Z0f58-33" value="Text" style="text;strokeColor=none;align=center;fillColor=none;html=1;verticalAlign=middle;whiteSpace=wrap;rounded=0;" vertex="1" parent="1">
          <mxGeometry x="4870" y="3350" width="60" height="30" as="geometry" />
        </mxCell>
        <mxCell id="rGXDuShkipq5UH_Z0f58-34" value="" style="shape=image;html=1;verticalAlign=top;verticalLabelPosition=bottom;labelBackgroundColor=#ffffff;imageAspect=0;aspect=fixed;image=https://cdn3.iconfinder.com/data/icons/essential-pack-2/48/29-Banking-Atm-128.png" vertex="1" parent="1">
          <mxGeometry x="4960" y="3320" width="398" height="398" as="geometry" />
        </mxCell>
        <mxCell id="rGXDuShkipq5UH_Z0f58-36" value="" style="shape=image;html=1;verticalAlign=top;verticalLabelPosition=bottom;labelBackgroundColor=#ffffff;imageAspect=0;aspect=fixed;image=https://cdn3.iconfinder.com/data/icons/essential-pack-2/48/29-Banking-Atm-128.png" vertex="1" parent="1">
          <mxGeometry x="5535" y="3330" width="398" height="398" as="geometry" />
        </mxCell>
        <mxCell id="rGXDuShkipq5UH_Z0f58-37" value="" style="shape=image;html=1;verticalAlign=top;verticalLabelPosition=bottom;labelBackgroundColor=#ffffff;imageAspect=0;aspect=fixed;image=https://cdn3.iconfinder.com/data/icons/essential-pack-2/48/29-Banking-Atm-128.png" vertex="1" parent="1">
          <mxGeometry x="1530" y="3320" width="398" height="398" as="geometry" />
        </mxCell>
        <mxCell id="rGXDuShkipq5UH_Z0f58-38" value="" style="shape=image;html=1;verticalAlign=top;verticalLabelPosition=bottom;labelBackgroundColor=#ffffff;imageAspect=0;aspect=fixed;image=https://cdn3.iconfinder.com/data/icons/essential-pack-2/48/29-Banking-Atm-128.png" vertex="1" parent="1">
          <mxGeometry x="860" y="3320" width="398" height="398" as="geometry" />
        </mxCell>
        <mxCell id="rGXDuShkipq5UH_Z0f58-39" value="" style="shape=mxgraph.signs.tech.video_camera;html=1;pointerEvents=1;fillColor=#000000;strokeColor=none;verticalLabelPosition=bottom;verticalAlign=top;align=center;" vertex="1" parent="1">
          <mxGeometry x="140" y="3330" width="539" height="220" as="geometry" />
        </mxCell>
        <mxCell id="rGXDuShkipq5UH_Z0f58-40" value="" style="rounded=0;whiteSpace=wrap;html=1;rotation=-90;strokeWidth=20;" vertex="1" parent="1">
          <mxGeometry x="20" y="-1290" width="3770" height="3660" as="geometry" />
        </mxCell>
        <mxCell id="rGXDuShkipq5UH_Z0f58-41" value="" style="rounded=0;whiteSpace=wrap;html=1;rotation=-90;strokeWidth=20;" vertex="1" parent="1">
          <mxGeometry x="3435" y="-745" width="4850" height="1840" as="geometry" />
        </mxCell>
        <mxCell id="rGXDuShkipq5UH_Z0f58-42" value="" style="rounded=0;whiteSpace=wrap;html=1;rotation=-180;strokeWidth=20;" vertex="1" parent="1">
          <mxGeometry x="-520" y="-3100" width="4720" height="1400" as="geometry" />
        </mxCell>
      </root>
    </mxGraphModel>
  </diagram>
</mxfile>
